<?xml version="1.0" encoding="utf-8"?>
<svg xmlns="http://www.w3.org/2000/svg" style="margin: auto; background: none; display: block; shape-rendering: auto;" width="280" height="250" preserveAspectRatio="xMidYMid">
<style type="text/css">
  text {
    text-anchor: middle; font-size: 200px; opacity: 0;
  }
</style>
<g style="transform-origin: 140px 125px; transform: scale(2.5);">
<g transform="translate(140,125)">
  <g transform="translate(0,0)"><g class="path" style="transform: matrix(1, 0, 0, 1, 0, 0); transform-origin: 6.559994px 8.092796px; animation: 4s linear infinite forwards tremble-e764999f-1d29-4764-8d0a-0068e76adbd9;"><path d="M24.64 12.24L24.64 12.24L24.64 10.72L24.64 10.72Q29.60 10.48 31.36 8.16L31.36 8.16L31.36 8.16Q33.12 5.84 34.64-2.56L34.64-2.56L42.32-46.80L42.32-46.80Q25.92-45.44 17-39.72L17-39.72L17-39.72Q8.08-34 8.08-24.80L8.08-24.80L8.08-24.80Q8.08-20.64 10.96-17.76L10.96-17.76L10.96-17.76Q12.96-15.84 16.24-14.84L16.24-14.84L16.24-14.84Q19.52-13.84 21.64-13.72L21.64-13.72L21.64-13.72Q23.76-13.60 23.92-13.76L23.92-13.76L23.92-12.08L23.92-12.08Q14.48-12.08 9.92-16.56L9.92-16.56L9.92-16.56Q6.56-19.68 6.56-24.80L6.56-24.80L6.56-24.80Q6.56-36.24 18.52-42.48L18.52-42.48L18.52-42.48Q30.48-48.72 52.32-48.72L52.32-48.72L52.32-48.72Q65.92-48.72 71.64-45.04L71.64-45.04L71.64-45.04Q77.36-41.36 77.36-35L77.36-35L77.36-35Q77.36-28.64 73-24.08L73-24.08L73-24.08Q68.64-19.52 61.52-17.04L61.52-17.04L61.52-17.04Q71.92 4.56 74.88 8.92L74.88 8.92L74.88 8.92Q77.84 13.28 82 13.28L82 13.28L82 13.28Q84.48 13.28 86.44 11.72L86.44 11.72L86.44 11.72Q88.40 10.16 89.20 7.52L89.20 7.52L91.20 7.52L91.20 7.52Q88.64 15.84 78.64 15.84L78.64 15.84L78.64 15.84Q72.32 15.84 68.20 12.84L68.20 12.84L68.20 12.84Q64.08 9.84 61.28 3.76L61.28 3.76L52.64-14.96L52.64-14.96Q49.44-14.64 47.92-14.64L47.92-14.64L47.92-14.64Q47.68-13.44 47.20-10.56L47.20-10.56L47.20-10.56Q46.72-7.68 46.40-6.24L46.40-6.24L46.40-6.24Q44.80 2.40 38.36 7.32L38.36 7.32L38.36 7.32Q31.92 12.24 24.64 12.24zM75.28-34.72L75.28-34.72L75.28-34.72Q75.28-46.96 53.04-47.20L53.04-47.20L48.24-16.40L48.24-16.40Q59.60-16.72 67.44-22.12L67.44-22.12L67.44-22.12Q75.28-27.52 75.28-34.72" fill="#5e6fa3" stroke="none" stroke-width="none" transform="translate(-42.32000732421875,24.532799072265625)" style="fill: rgb(94, 111, 163);"></path></g></g>
</g>
</g>
<style id="tremble-e764999f-1d29-4764-8d0a-0068e76adbd9" data-anikit="">@keyframes tremble-e764999f-1d29-4764-8d0a-0068e76adbd9 {
  0% { transform: translate(0px,0px) rotate(0deg) scale(1) }
  3.33333% { transform: translate(-0.18923px,1.45485px) rotate(0deg) scale(1) }
  6.66667% { transform: translate(-0.84296px,-1.32524px) rotate(0deg) scale(1) }
  10% { transform: translate(0.67971px,1.00422px) rotate(0deg) scale(1) }
  13.33333% { transform: translate(-0.5056px,0.83616px) rotate(0deg) scale(1) }
  16.66667% { transform: translate(1.31368px,-0.51401px) rotate(0deg) scale(1) }
  20% { transform: translate(-1.21184px,1.49193px) rotate(0deg) scale(1) }
  23.33333% { transform: translate(1.09065px,-0.21259px) rotate(0deg) scale(1) }
  26.66667% { transform: translate(-1.49916px,0.56159px) rotate(0deg) scale(1) }
  30% { transform: translate(1.48086px,1.21228px) rotate(0deg) scale(1) }
  33.33333% { transform: translate(-1.43889px,-1.152px) rotate(0deg) scale(1) }
  36.66667% { transform: translate(1.35914px,1.34835px) rotate(0deg) scale(1) }
  40% { transform: translate(-1.42834px,0.3091px) rotate(0deg) scale(1) }
  43.33333% { transform: translate(1.47472px,-1.49889px) rotate(0deg) scale(1) }
  46.66667% { transform: translate(-0.92402px,1.4416px) rotate(0deg) scale(1) }
  50% { transform: translate(1.0657px,-0.75306px) rotate(0deg) scale(1) }
  53.33333% { transform: translate(-1.19035px,-1.07484px) rotate(0deg) scale(1) }
  56.66667% { transform: translate(0.28828px,0.79337px) rotate(0deg) scale(1) }
  60% { transform: translate(-0.47167px,-1.42789px) rotate(0deg) scale(1) }
  63.33333% { transform: translate(0.64753px,-0.09795px) rotate(0deg) scale(1) }
  66.66667% { transform: translate(0.41006px,-0.26292px) rotate(0deg) scale(1) }
  70% { transform: translate(-0.22477px,-1.3683px) rotate(0deg) scale(1) }
  73.33333% { transform: translate(0.03588px,0.92931px) rotate(0deg) scale(1) }
  76.66667% { transform: translate(-1.01937px,-1.18398px) rotate(0deg) scale(1) }
  80% { transform: translate(0.8724px,-0.60494px) rotate(0deg) scale(1) }
  83.33333% { transform: translate(-0.71151px,1.4786px) rotate(0deg) scale(1) }
  86.66667% { transform: translate(1.40734px,-1.49607px) rotate(0deg) scale(1) }
  90% { transform: translate(-1.33062px,0.46957px) rotate(0deg) scale(1) }
  93.33333% { transform: translate(1.23264px,1.26738px) rotate(0deg) scale(1) }
  96.66667% { transform: translate(-1.48975px,-1.03867px) rotate(0deg) scale(1) }
  100% { transform: translate(0,0) rotate(0) scale(1) }
}</style></svg>